<svg xmlns="http://www.w3.org/2000/svg" xmlns:xlink="http://www.w3.org/1999/xlink" version="1.1" x="0px" y="0px" viewBox="0 0 100 125" enable-background="new 0 0 100 100" xml:space="preserve"><path d="M87.711,77.681c-0.195-0.227-0.942-0.65-1.755-1.43c-0.812-0.78-0.091-1.746-0.91-2.178  c-0.819-0.432-0.812-1.04-1.105-1.268c-0.292-0.228-0.065-1.235-0.065-1.235L43.325,34.16l0.292-27.92L14.362,5  c0,0-0.154,1.36-0.434,2.029c-0.085,0.204-0.065,0.256,0.008,0.256c0.074,0,0.203-0.053,0.331-0.053  c0.158,0,0.313,0.082,0.359,0.448c0.12,0.953,0.995,2.726-0.377,5.434c-0.223,0.33,0.641,0.293,0.193,1.391  c-0.448,1.098-2.449,4.437-2.279,5.02c0.169,0.583-0.169,1.41,0.733,2.181c0.902,0.771,4.682,4.626,3.14,7.258  c0,0-0.583,1.147,0.658,3.479c0.62,1.241-1.993,0.169,0.884,3.196s0.752,1.57,2.275,2.661c0,0,1.072,0.931,1.203,1.495  c0.132,0.564,0.696,1.485,1.015,1.88c0.32,0.395-2.162-0.244-0.357,1.015c1.128,0.787,1.903,1.442,2.331,1.442  c0.257,0,0.388-0.236,0.395-0.822c0.01-0.864,0.929-1.553,1.585-1.553c0.529,0,0.887,0.447,0.465,1.609  c-0.948,2.605-0.094,2.52,1.203,4.325c0.497,0.692,0.446,0.974,0.125,0.974c-0.516,0-1.728-0.728-2.472-1.646  c-0.52-0.642-0.833-0.979-0.96-0.979c-0.167,0-0.008,0.588,0.43,1.84c0.771,2.2,0.056,2.877,1.579,4.212  c0.722,0.633,1.081,0.822,1.346,0.822c0.295,0,0.475-0.233,0.91-0.352c0.021-0.006,0.042-0.009,0.064-0.009  c0.836,0,2.198,4.111,0.293,4.239c-1.955,0.132-0.47,0.903-0.225,2.388s1.974,0.884,2.331,2.614c0.357,1.73,1.116,1.1,1.354,2.162  s1.674,2.106,2.012,2.501c0.338,0.395,2.501,1.561,1.88,2.689c-0.62,1.128,0.808,1.053,1.279,1.072  c0.47,0.019,0.564,1.279,0.226,2.576c-0.338,1.297,0.376,1.372,0.282,2.012c-0.089,0.608-0.179,2.27,1.316,2.27  c0.077,0,0.159-0.004,0.244-0.014c0.681-0.073,1.471-0.129,2.224-0.129c1.181,0,2.273,0.138,2.721,0.562  c0.148,0.141,0.326,0.187,0.525,0.187c0.377,0,0.829-0.166,1.301-0.166c0.508,0,1.039,0.193,1.522,0.994  c1.077,1.789,2.233,2.631,4.64,2.631c0.199,0,0.408-0.006,0.625-0.017c0.091-0.005,0.179-0.007,0.263-0.007  c2.537,0,1.973,2.127,1.918,2.527c-0.029,0.21,0.093,0.294,0.403,0.294c0.302,0,0.782-0.079,1.477-0.2  c0.034-0.006,0.07-0.009,0.108-0.009c1.558,0,6.723,4.794,6.943,8.244c0.243,1.866,0.934,2.275,0.947,3.027l18.585-2.14  c0,0,0.78-0.097,1.462-0.487c0.682-0.39,0.357-1.463,0.292-1.918c-0.053-0.373-0.412-0.506-0.754-0.506  c-0.075,0-0.15,0.006-0.22,0.018c-0.098,0.016-0.225,0.029-0.354,0.029c-0.385,0-0.787-0.117-0.491-0.615  c0.396-0.665,0.195-1.658,0.065-1.755c-0.13-0.098-0.878-1.247,0.163-1.3c1.04-0.053,1.007-2.503,1.072-3.445  s-0.529-1.543-0.529-1.543s0.027,0.002,0.072,0.002c0.274,0,1.226-0.061,1.009-0.929c-0.252-1.01,0.39-0.683,1.365-1.268  C88.036,78.559,87.906,77.909,87.711,77.681z M83.693,79.513c-0.405,0.19-0.742,0.52-0.95,0.948  c-0.37,0.763-0.191,1.681,0.406,2.284c-0.009,0.13-0.016,0.285-0.024,0.458c-0.013,0.28-0.042,0.897-0.11,1.335  c-0.76,0.316-1.204,0.933-1.38,1.508c-0.273,0.894,0.023,1.795,0.423,2.432c-0.587,1.09-0.217,1.976-0.024,2.315  c0.044,0.077,0.098,0.162,0.166,0.251l-15.551,1.791c-0.114-0.27-0.214-0.588-0.281-1.068c-0.332-4.165-6.023-10.038-8.934-10.038  c-0.013,0-0.025,0-0.037,0c-0.119-0.439-0.329-0.892-0.682-1.311c-0.499-0.594-1.457-1.301-3.187-1.301  c-0.118,0-0.24,0.003-0.368,0.01c-0.18,0.01-0.353,0.014-0.519,0.014c-1.647,0-2.175-0.415-2.926-1.662  c-0.977-1.622-2.298-1.963-3.235-1.963c-0.392,0-0.739,0.058-1.007,0.108c-0.802-0.475-1.931-0.692-3.539-0.692  c-0.637,0-1.263,0.036-1.795,0.079c0.094-0.799-0.177-1.374-0.343-1.687c0.002-0.008,0.004-0.017,0.007-0.026  c0.214-0.821,0.611-2.869-0.33-4.139c-0.264-0.356-0.611-0.623-1.003-0.78c-0.204-1.536-1.718-2.682-2.32-3.137  c-0.086-0.065-0.163-0.122-0.223-0.171c-0.145-0.157-0.311-0.309-0.499-0.481c-0.247-0.226-0.904-0.826-1.005-1.071  c-0.263-1.172-0.935-1.682-1.299-1.935c-0.013-0.045-0.03-0.109-0.048-0.194c-0.382-1.849-1.698-2.499-2.33-2.811  c-0.015-0.007-0.03-0.015-0.046-0.023c-0.022-0.093-0.046-0.183-0.071-0.27c0.813-0.55,1.395-1.553,1.345-3.048  c-0.049-1.467-0.937-4.683-3.255-4.684c-0.07,0-0.139,0.003-0.208,0.01c0.566-0.173,1.041-0.558,1.312-1.087  c0.674-1.313-0.212-2.546-0.503-2.951c-0.344-0.479-0.654-0.837-0.904-1.124c-0.113-0.13-0.247-0.285-0.321-0.383  c0.016-0.122,0.073-0.405,0.277-0.967c0.581-1.596,0.22-2.62-0.184-3.198c-0.487-0.696-1.275-1.095-2.16-1.095  c-0.772,0-1.591,0.322-2.25,0.867c-0.045-0.072-0.095-0.141-0.15-0.209c-0.211-0.26-0.562-0.872-0.622-1.076  c-0.23-0.988-1.128-1.932-1.84-2.55c-0.047-0.041-0.096-0.08-0.147-0.116c-0.026-0.019-0.051-0.036-0.074-0.053  c-0.317-0.612-0.923-1.314-1.916-2.359c-0.184-0.194-0.333-0.358-0.452-0.495c0.351-0.756,0.228-1.577-0.093-2.218  c-0.008-0.015-0.015-0.03-0.023-0.045c-0.539-1.012-0.568-1.594-0.559-1.782c2.118-4.162-3.064-8.962-3.67-9.504  c-0.003-0.056-0.006-0.128-0.008-0.186c-0.005-0.147-0.01-0.324-0.033-0.52c0.213-0.547,0.82-1.704,1.166-2.362  c0.401-0.764,0.748-1.424,0.937-1.889c0.24-0.588,0.407-1.362,0.146-2.152c0.933-2.408,0.502-4.237,0.258-5.272  c-0.037-0.155-0.073-0.29-0.088-0.407c-0.015-0.116-0.035-0.228-0.06-0.334l25.047,1.062l-0.272,25.983  c-0.006,0.566,0.228,1.107,0.644,1.491L81.79,72.367c0.018,0.724,0.236,1.321,0.648,1.766c0.165,0.316,0.464,0.855,1.093,1.338  c0.056,0.573,0.237,1.452,1.04,2.223c0.091,0.087,0.181,0.17,0.269,0.25C84.121,78.369,83.803,78.946,83.693,79.513z"/><path d="M28.049,50.654c-0.065,0.019-0.128,0.04-0.187,0.061c-0.019-0.016-0.038-0.032-0.058-0.05c0.005,0,0.01,0,0.014,0  C27.896,50.665,27.973,50.661,28.049,50.654"/><polyline points="85.018,91.94 85.023,91.94 85.018,91.94 "/><text x="0" y="115" fill="#000000" font-size="5px" font-weight="bold" font-family="'Helvetica Neue', Helvetica, Arial-Unicode, Arial, Sans-serif">Created by orlangiodo</text><text x="0" y="120" fill="#000000" font-size="5px" font-weight="bold" font-family="'Helvetica Neue', Helvetica, Arial-Unicode, Arial, Sans-serif">from the Noun Project</text></svg>