<svg xmlns="http://www.w3.org/2000/svg" xmlns:xlink="http://www.w3.org/1999/xlink" version="1.1" x="0px" y="0px" viewBox="0 0 128 160" style="enable-background:new 0 0 128 128;" xml:space="preserve"><path d="M64,128c35.3466797,0,64-28.653801,64-64S99.3466797,0,64,0C28.6532803,0,0,28.6537991,0,64S28.6532803,128,64,128z   M123.921875,60.9403992c-0.114296-0.0590973-0.2372971-0.1152-0.3769989-0.1644974  c-0.5341949-0.1895027-1.2382965-0.3911018-1.9980011-0.6074028c-1.0214996-0.2905998-2.9151001-0.8300972-3.8437958-1.3144989  c1.1865005-0.171402,3.6592026-0.1016006,6.0762024,0.2016983C123.8310776,59.6825981,123.8905792,60.3081017,123.921875,60.9403992  z M105.8603821,21.0727997c9.6083984,9.3719997,16.0877991,21.9277,17.7206955,35.9472008  c-7.9112015-0.9326019-8.211998,0.7319984-8.3164978,1.3686981c-0.3310013,1.9760017,2.6152954,2.815403,5.7344208,3.7036018  c0.7138748,0.2030983,1.3759995,0.3905983,1.8779984,0.5682983c0.0292816,0.0107994,0.0555801,0.0209999,0.0780792,0.0303001  c-0.1532974,0.3306007-0.6377029,0.9131012-0.9452972,1.2817993c-0.4287033,0.5135994-0.8711014,1.0449028-1.1319046,1.5673027  c-0.2938766,0.5029984-2.8622971,1.5190964-7.6268768,2.2016983c-0.7979202-0.1068954-2.58992-3.3721008-3.4502182-4.9413986  c-1.5899048-2.8974991-2.4570007-4.4976006-3.797905-4.2733994c-0.4570007,0.0760994-0.8339996,0.3509979-1.0350952,0.7528992  c-0.5459061,1.0937004,0.2977982,2.8143997,2.1054001,6.2925034c0.6132965,1.1810989,1.2481003,2.4027939,1.7872009,3.577095  c1.7938995,3.9057999,6.791893,3.7231979,9.1903992,3.4785004c-0.3770065,0.6949005-1.1231003,1.7099991-2.3877029,2.6288986  c-2.6503983,1.9263-5.8018036,5.8936005-6.8672028,10.4160995c-0.8876953,3.7733994-1.9297943,6.9877014-7.264595,14.0170059  c-3.9912796,5.2582932-4.3535995,5.0712967-6.0878983,4.1791992c-0.3964996-0.2041016-0.8418045-0.4326019-1.3633041-0.6557007  c-1.9356003-0.8296051-1.8593979-4.2276001-1.7862015-7.5137024c0.0254059-1.1337967,0.0518036-2.3060989-0.0077972-3.3773956  c-0.1259003-2.2657013,0.0186005-3.4702072,0.1464996-4.5327072c0.1122971-0.9375,0.2099991-1.7465973,0.0888977-2.9468002  c-0.1405945-1.415596-0.7666016-2.3520966-1.3183975-3.1786957c-0.5253983-0.7881012-0.9794998-1.4682999-1.0800781-2.5702972  c-0.172821-1.9063034-0.4941254-5.4463043-3.8388214-5.4463043c-0.0156021,0-0.0313034,0-0.0468979,0  c-0.6122818,0.0057983-1.4287033,0.0765991-2.3740005,0.158699c-2.5312805,0.2197037-6,0.5195007-8.6592026-0.1298981  c-3.1630783-0.7734985-4.6855011-7.1679993-4.0634995-9.8604012c0.6035004-2.6200981,1.910202-3.6562004,3.0625-4.5708008  l0.1875-0.1493988c1.1757965-0.9398994,2.0742035-2.543499,2.942421-4.0946999l0.4218826-0.7481003  c0.4227982-0.7347984,4.4315948-1.1478996,5.9403992-1.3031998c1.1562958-0.1190987,2.1542969-0.2221985,2.7939987-0.3817978  c0.4598999-0.1118011,0.6815948,0.0404968,1.3983994,2.222599c0.1650009,0.5004997,0.339798,1.0312996,0.5468979,1.5658989  c0.2724228,0.7041016,0.7929001,1.2232018,1.5048981,1.5009995c2.1152039,0.8262024,5.4921036-0.7793007,5.9531021-1.0116997  c0.0127029-0.0072975,1.2470016-0.7270012,2.1494217-0.2753983c1.5830002,0.7901001,6.7080002,0.2753983,8.240181,0.0990982  c0.5048218-0.0585976,0.8858185-0.4857979,0.8858185-0.9935989v-4.661602c0-0.2719994-0.1114197-0.532299-0.3067169-0.7206993  c-0.1962814-0.1889992-0.4638062-0.2885971-0.7324066-0.2784004c-0.0263977,0.0004997-2.6161957,0.1001015-4.4657974,0.0004997  c-0.7266006-0.0389977-1.4736023-1.8934975-1.7138977-3.1605988C99.875,46.4599991,99.570282,46.1469994,99.177681,46.0625  c-0.3945007-0.0844994-0.7998047,0.0746994-1.0302048,0.4033012c-0.4091949,0.5854988-0.906395,1.1899986-1.2861938,1.5844994  c-0.125-0.3281021-0.2588043-0.7173004-0.3642044-1.0233994c-0.6913986-2.0098-1.1797028-3.2544022-2.1269989-3.5962029  c-0.402298-0.1455002-0.8300781-0.1010971-1.2030792,0.1264c-1.4902191,0.9068031-0.8565216,2.2700005-0.5147171,3.0025024  c0.2197952,0.4730988,0.4472961,0.9618988,0.5224991,1.5643997c0.0526962,0.4169998-0.0264053,0.7348976-0.2471008,1.0009995  c-0.3964005,0.4775009-1.2588043,0.7953987-2.3759003,0.8788986c0.0243988-0.1620979,0.0625-0.3524971,0.0917969-0.5004997  c0.1904221-0.9692001,0.4794235-2.4335976-0.5175781-3.5946999c-0.4336166-0.5063972-1.0419998-0.7992973-1.7599182-0.8476982  c-2.5643005-0.1855011-6.2723007,2.9179993-7.343605,3.8701973c-1.3769989,1.2231026-2.2509995,1.1333008-3.3593979,1.0161018  c-0.3398972-0.0357018-0.6728973-0.0689011-1-0.0689011c-0.0038986,0-0.0077972,0.0004997-0.0107956,0.0004997  c-0.4121017-0.1190987-1.1367035-2.1138-0.7158051-3.7968979c0.0127029-0.0503006,0.0253983-0.0796013,0.0253983-0.0888023  c0.2432022-0.0742989,1.1192017,0.2182007,1.8213043,0.680603c0.3691025,0.2441978,0.8554993,0.2153969,1.1942978-0.0674019  c1.5147018-1.2700005,1.4327011-1.9179001,1.397522-2.1942978c-0.0283203-0.2266006-0.1221237-0.4346008-0.2656174-0.6030006  c-0.0273819-0.4971008,0.1737976-1.7158012,0.6376953-2.3052025c0.0859222-0.1083984,0.1737976-0.1810989,0.2197037-0.1810989  c2.5009995,0,6.0653992-5.4604988,6.8222961-6.6674995c0.1787033,0.1421013,0.4169998,0.3730011,0.5927048,0.5433998  c0.7870941,0.7621994,1.8652954,1.8062019,3.3857956,1.8062019c3.1094208,0,5.0224228-4.5645027,5.3125-6.8936024  c0.1220016-0.9853001-0.0722961-1.7665997-0.5772018-2.3216991c-0.2089996-0.2310009-0.4403992-0.386301-0.6610947-0.4908009  c-0.3242035-2.6625996-0.8535004-4.2670994-1.573204-4.7723999c-0.319397-0.2245998-0.699295-0.2959003-1.0625-0.2061005  c-1.4814987,0.3706017-2.3828964,2.9292011-2.6777954,7.6065006c-0.0419998,0.6683998-0.1932831,1.1406002-0.4150009,1.2959003  c-0.427803,0.3006992-1.6259995-0.0557003-2.5868988-0.3418007c-0.5137024-0.1528988-1.0450058-0.3111-1.5625-0.4140987  c-0.3808823-0.0762005-0.6603012-0.2944012-0.8770065-0.6870003c-0.6727982-1.2144012-0.5057983-3.6685009,0.4160004-6.1060009  c1.172905-3.1049995,7.0264053-5.3549995,11.5918045-4.4549999c1.9863968,0.3901005,2.0195999,1.0874004,2.0733185,2.2420998  c0.0419998,0.9229012,0.1141815,2.4668007,2.0214767,2.8135014  C103.1942749,24.6401005,104.8192749,22.7724991,105.8603821,21.0727997z M88.9285812,51.4496994  c0.3604965,0.4131012,0.8975983,0.6025009,1.6231995,0.5586014c1.7752991-0.1049995,3.1288986-0.660202,3.9140015-1.6054993  c0.3252182-0.3916016,0.5439987-0.8418007,0.6493988-1.3334999c0.3681946,0.8740997,0.7548981,1.3696976,1.4532013,1.3696976  c0.2342987,0,0.8330002,0,1.9842987-1.2578011c0.5214996,1.3032036,1.4483185,2.7480011,3.0029984,2.831501  c1.2010956,0.0664024,2.6543198,0.0517998,3.6123199,0.0307999v2.7324028  c-2.6602173,0.2572975-5.5821228,0.3300972-6.2325211,0.0053978c-1.9160004-0.9570999-4.0057983,0.3090019-4.009697,0.3163986  c-0.9463043,0.4653015-3.235405,1.2983017-4.2597809,0.8964005c-0.1894226-0.0741997-0.2959213-0.1781998-0.3662186-0.3602982  c-0.1943054-0.5009995-0.357399-0.9985008-0.5117035-1.4682999c-0.5400772-1.6401024-1.1962967-3.6366997-3.0342026-3.6366997  c-0.2304993,0-0.4794998,0.0312996-0.7489929,0.0985985c-0.5020065,0.1254997-1.4795074,0.2261009-2.5138016,0.3325996  c-0.7714005,0.0796013-1.5,0.1590996-2.1786041,0.2475014c0.3339996-0.206501,0.6807022-0.4634018,1.0381012-0.7812004  c2.3202972-2.0615997,4.7538986-3.4434013,5.8807983-3.3701019c0.2286224,0.0156021,0.3184052,0.0869026,0.3769989,0.1547012  c0.3379059,0.3941002,0.2432022,1.0386009,0.0723038,1.9057999C88.5263824,49.9003983,88.3515778,50.7886009,88.9285812,51.4496994z   M89.3035812,33.3198013c0.7032013,0.0513,1.3770981-0.0531998,1.9552002-0.4575005  c0.7665939-0.5361023,1.1806946-1.4556007,1.2655945-2.8105011c0.172905-2.7397995,0.5557022-4.3139992,0.8408051-5.1142998  c0.2188187,0.8085995,0.4404984,2.0508003,0.5634003,3.2528992c0.0537949,0.5200005,0.4668961,0.9361,0.9824982,0.897501  c0.0009995,0,0.0800018,0.0067997,0.1162033,0.0508003c0.0634995,0.0770988,0.119194,0.3143997,0.0683975,0.7264996  c-0.2246017,1.8052006-1.7480011,5.1397018-3.3281021,5.1397018c-0.7109985,0-1.3632965-0.6319008-1.9942017-1.2427025  C89.6190796,33.6123009,89.4638824,33.4618988,89.3035812,33.3198013z M60.1952782,4.1332998  c0.3867226-0.0243998,0.7715034-0.0492997,1.1592026-0.0658998c-0.8682022,0.5145998-1.6894798,1.0409999-2.4238014,1.5674  C59.4540787,5.0591002,59.8690796,4.5688,60.1952782,4.1332998z M65.5790787,4.04  c4.0342026,0.105,7.9688034,0.6083999,11.7695007,1.4756002c-0.027298,0.1197-0.0351028,0.2465997-0.0135803,0.3774996  c0.007782,1.3613-4.7032166,12.29-11.4219208,18.092701c-4.0790787,3.5205002-5.1708984,5.5855007-5.8944969,6.9521999  c-0.5205803,0.9853001-0.7588005,1.4350014-1.8457031,2.0166016c-0.1415977,0.0756989-0.2353973,0.107399-0.2910995,0.1210976  c-0.4510994-0.6703987-0.1649971-3.7817993-0.0546989-4.9750996c0.0732994-0.8013,0.1367989-1.4926987,0.1367989-2.0028992  c0-0.5494003,0.1875-1.1455994,0.3866997-1.777401c0.5039024-1.6029987,1.1318016-3.5980988-0.8769989-5.9902  c-0.3485794-0.4154987-0.5283012-0.7856998-0.4911995-1.0155983c0.0615005-0.3868008,0.75-0.8169003,1.2538986-1.1309013  c0.6923027-0.4320993,1.4082031-0.8793993,1.4082031-1.7187996c0-0.6610994-0.3524818-1.3534994-0.7988014-2.2304001  c-0.4286804-0.8432999-0.9160004-1.7997999-1.1406021-2.7411995C57.8827782,8.6239996,61.4140816,6.2065001,65.5790787,4.04z   M57.3740005,4.3740001c-0.6045189,0.6602001-1.28022,1.3662-1.8662224,1.9784999  c-2.0468979,2.1377001-4.1639977,4.3481998-4.9579964,5.9361c-0.5391006,1.0781002-0.785202,1.1728001-0.7939034,1.1761999  c-0.1455002,0.0249004-0.7158775-0.2323999-1.1337967-0.4251995c-0.847702-0.3912001-2.0088005-0.9278002-3.6924019-1.2818003  c-3.8339996-0.8066006-5.6357994-1.5474005-6.4785004-2.0312004C44.3046799,6.9594998,50.6737785,5.1138,57.3740005,4.3740001z   M4,64c0-19.6576996,9.5028811-37.1376991,24.1562805-48.0878983c0.6748009,0.0546999,1.3447189,0.1973,1.7587204,0.522501  c0.2304802,0.1810989,0.34478,0.3978996,0.3710804,0.7020988c0.0303001,0.3754997,0.0536995,0.7056007,0.0742989,0.9955997  c0.1424999,2.0531998,0.3125,3.0401001,2.6014996,3.0401001c1.339901,0,3.9238014-0.8423004,6.0039024-1.8495998  c-0.0107002,0.2695007,0.0292969,0.5370998,0.1366997,0.7944012c0.1279984,0.3036995,0.469799,0.8412991,1.3242989,1.0311985  c0.6152191,0.136301,1.2557983,0.0826015,1.8700981-0.0550995c-0.8526001,0.6308002-1.9189987,1.331501-2.9140968,1.9857998  c-3.6660004,2.4092007-7.127903,4.6851006-6.9375,6.9922009c0.2001991,2.4232979,0.6532974,3.1152,1.3202972,3.8945007  c0.1104202,0.1293983,0.2276001,0.2641983,0.3467026,0.4375c0.2637177,0.3822975,0.6640968,0.588398,1.077198,0.5746994  c0.7607002-0.0298004,1.1445198-0.6933022,1.5507011-1.3955002c0.5976982-1.0341988,0.9971008-1.5674019,1.4278183-1.4262009  c1.8885803,0.6323013,3.0917816-1.5551987,4.0565796-3.3106003c0.3076019-0.5580997,0.7891006-1.4345989,1.1123009-1.7915001  c0.5576019,0.5840015,1.0195007,1.8276005,1.3661995,2.7598c0.5615005,1.5097008,1.0937996,2.9310989,2.4229202,2.6035004  c0.1796799-0.044899,0.4227791-0.139698,0.7050819-0.2559013c0.5604973-0.2318974,1.4090996-0.5819988,1.8495979-0.3197975  c0.3778992,0.2266006,0.6581993,0.9897003,0.7685013,2.0942001C50.6220818,35.6650009,51.1005783,37.25,51.52248,38.6483994  c0.3485985,1.1548004,0.8260994,2.7364006,0.5663986,3.1123009c-0.0527992,0.0751991-0.2695999,0.1734009-0.7109985,0.2032013  c-1.1015015,0.0648994-1.4267006-0.4790001-1.9580002-1.8540001c-0.3740005-0.9717026-1.0791016-2.777401-3.0634995-2.1841011  c-0.6913795,0.2070007-1.222599-0.0918007-1.7080002-0.4141006c-0.2402-0.1605988-0.8768997-0.5853996-1.4842987-0.0966988  c-0.6368027,0.5102997-0.4395027,1.0234985,0.1464005,2.5468979c0.2315178,0.6026001,0.4550972,1.1259995,0.6485176,1.5820007  c0.2411804,0.5649986,0.5097809,1.1958008,0.560482,1.4916992c-0.0810013,0.0367012-0.2314034,0.0909004-0.4922028,0.1490021  c-0.5145988,0.1133003-1.1884003,0.0663986-1.9667969,0.0135994c-1.9696999-0.1385994-4.6669006-0.3227005-7.1640015,2.1744003  c-1.7206993,1.7192001-3.2343998,5.097599-4.5702991,8.0780983c-0.9081821,2.0283012-2.1533012,4.8061028-2.7559013,5.1259995  c-0.5341988,0.2041016-1.5429993-0.6357994-2.3514996-1.3085976c-1.0087814-0.839901-1.9619999-1.6328011-3.0576992-1.6328011  c-0.0625,0-6.2578001,0.0786018-8.1435003,2.8955002c-0.4443998,0.6645012-0.8437996,1.7728996-0.2216997,3.2826996  c0.4237995,1.0278015,1.0468998,1.6758003,1.8534994,1.9258003c1.3936186,0.4360008,2.7686186-0.4659004,3.8739996-1.1861  c0.1513996-0.0985985,0.3379002-0.2196999,0.512701-0.3270988c-0.0234013,0.3139-0.1424999,0.5599976-0.2959003,0.8759995  c-0.342701,0.704998-0.8104992,1.6703987,0.1319008,3.179203c0.7255993,1.1581955,1.5859184,1.7142944,2.2147999,2.1205978  c0.1651192,0.1063995,0.3799,0.2455978,0.4843998,0.3377991c-0.0967007,0.1362991-0.3291016,0.3506012-0.4629002,0.4747009  c-0.4580002,0.4227982-1.0272999,0.9487-0.9150009,1.7391968c0.0722008,0.5068054,0.4090996,0.9136047,1,1.2089996  c0.700201,0.3496017,1.7060013,0.494606,2.6982002,0.6240005c-1.1133003,0.5362015-2.6133003,1.0298004-3.9071999,0.8067017  c-0.8819008-0.1503983-1.5547009-0.6132965-2.0566998-1.4160995c-0.7157993-1.1458969-0.8973999-1.9872971-1.0576-2.7290039  c-0.4570007-2.1151962-1.0830002-3.1068954-5.5058002-4.416893c-2.3007994-0.6807022-4.2158995-0.5201035-5.7538996-0.3936005  c-1.3681998,0.1151962-2.1602001,0.1581955-2.6005998-0.2412033C4.0087814,64.2637024,4,64.1327972,4,64z M6.776381,66.6308975  c1.4452996-0.1205978,3.0809999-0.255394,5.0195003,0.318306c3.7265997,1.1034927,3.8417997,1.6352997,4.1191187,2.9208984  c0.1747808,0.8125,0.4150801,1.9247971,1.3173819,3.3676987c0.7988987,1.2778015,1.9804993,2.0824966,3.4159985,2.3271027  c0.335001,0.0571976,0.6718998,0.0825958,1.0098,0.0825958c2.6025009,0,5.1562996-1.5419998,5.9277-2.158699  c0.6709003-0.5362015,0.6329002-1.108902,0.5508003-1.4029007c-0.2588005-0.9272003-1.2772999-1.0599976-2.8192997-1.2606964  c-0.5468998-0.0708008-1.1835995-0.153801-1.6991997-0.2847061c0.4549999-0.4286957,0.9834003-1,0.9834003-1.8080978  c0-1.0863953-0.7930012-1.5986023-1.4297009-2.0102005c-0.5224991-0.3378983-1.1152992-0.721199-1.6044998-1.5014954  c-0.3554993-0.5703049-0.2929993-0.6996994-0.0282993-1.2451019c0.2762985-0.5693016,0.6942997-1.4302025,0.3983994-2.7602997  c-0.1669998-0.7490005-0.6308994-1.0400009-0.892601-1.1464996c-0.8417988-0.3432007-1.6639996,0.1899986-2.6132984,0.8090973  c-0.6757011,0.4405022-1.6972008,1.0992012-2.1893997,0.9517021c-0.2764006-0.0859032-0.4921818-0.5239029-0.5967007-0.7778015  c-0.3104811-0.7524986-0.1289005-1.1641006,0.0341997-1.4081993c0.9502001-1.4195023,4.6904001-2.0083008,6.4814005-2.0083008  c0.3731003,0,1.1856003,0.6762009,1.7783985,1.169899c1.2070007,1.0044022,2.7080002,2.2544022,4.3330002,1.6445007  c1.2734013-0.4770012,2.2060013-2.4477005,3.8788986-6.1810989c1.2656212-2.8227997,2.6992035-6.0224991,4.1591034-7.4814987  c1.8526001-1.8525009,3.7636986-1.7222023,5.6132965-1.5937004c0.8955002,0.060997,1.7432213,0.1195984,2.5371017-0.0567017  c0.6699982-0.1488991,1.4883003-0.4155006,1.8721199-1.1636009c0.4570007-0.8876991,0.0624809-1.8125-0.5332184-3.2127991  c-0.1035004-0.2426987-0.2157822-0.5053978-0.3330002-0.7901001c0.434597,0.0546989,0.9267998,0.0317993,1.4638977-0.1283989  c0.0800018-0.0238991,0.1259003-0.0283012,0.1318016-0.033699c0.1436005,0.1205978,0.3612976,0.6830978,0.4921989,1.0224991  c0.4775009,1.2362976,1.2607002,3.3120003,3.9560013,3.1283989c1.0351982-0.0689011,1.7831993-0.4258003,2.2226982-1.0601006  c0.8086205-1.1688995,0.3213005-2.7841988-0.2958984-4.828598c-0.3954811-1.3110008-0.8446999-2.7974014-0.9980011-4.3334999  c-0.1846008-1.8423004-0.7509995-3.0234013-1.7324791-3.6108017c-1.3047218-0.7807999-2.7666206-0.1742992-3.6416206,0.1875  c-0.0028992,0.0010014-0.0057983,0.0024014-0.0088005,0.0039005c-0.1502991-0.3188992-0.3339005-0.8106003-0.4785004-1.2007008  c-0.5205002-1.3978996-1.1092987-2.9828987-2.2108994-3.8163986c-0.4033012-0.3057003-0.8817978-0.4194012-1.3495979-0.3203011  c-1.0752029,0.2290001-1.7559013,1.4678001-2.5449028,2.9013004c-0.4101982,0.7451992-1.2626801,2.2959003-1.6728973,2.3775005  c-1.9521027-0.6513996-3.1123009,1.1581993-3.7060013,2.1753006c-0.2989006-0.3911018-0.5205994-0.8965015-0.6553001-2.5278015  c-0.0928001-1.1236,3.8983994-3.7465992,6.0429001-5.1557999c2.3583984-1.5503006,4.394619-2.8887005,5.0997009-4.0634995  c0.2860985-0.4770012,0.8192978-1.3647003,0.2206993-2.0737c-0.5917816-0.6977997-1.4131012-0.3736-2.3662987-0.0004997  c-0.6884003,0.2699986-1.6992035,0.664999-2.4374809,0.5980988c0.1191788-0.3915997,0.52248-1.0404987,0.6718788-1.2806988  c0.2743988-0.4409008,0.7333984-1.1797009,0.0732994-1.7709999c-0.6620979-0.5947008-1.375-0.0391006-1.7168007,0.2279987  c-1.6103783,1.2646999-5.7079964,2.7852001-7.0644989,2.7852001c-0.2430992,0-0.3993988-0.0063992-0.4980011-0.0151997  c-0.0449982-0.2460995-0.077198-0.7108994-0.1083984-1.1634998c-0.0214806-0.2978992-0.0449982-0.6373005-0.077198-1.0235004  c-0.0712814-0.8568993-0.4619007-1.5868998-1.1299019-2.1097994c-0.2518997-0.1978006-0.5361004-0.3541002-0.8358994-0.4825001  c1.9589996-1.3344002,4.0067978-2.5448999,6.1221008-3.6440001c0.7518997,0.7397003,2.6571999,1.8393002,8.0830002,2.9808998  c1.4628983,0.3077002,2.4628983,0.7695999,3.2665977,1.1407003c0.735302,0.3393002,1.3847008,0.5970993,1.9930992,0.5970993  c0.9013023,0,1.7089996-0.5658998,2.5615997-2.2689991c0.5272026-1.0542002,1.9775009-2.6680002,3.4843025-4.2627001  c-0.1074028,0.3163996-0.1406021,0.6225996-0.0760994,0.9136c0.285099,1.2817001,0.857399,2.4047995,1.3163986,3.3070993  c0.1786995,0.3501005,0.4053001,0.7964001,0.5155983,1.0874004c-0.1210785,0.0824995-0.2754974,0.1786995-0.402298,0.2578001  c-0.8291016,0.5180998-1.9659004,1.2276001-2.170002,2.5141993c-0.1327782,0.8379002,0.1817017,1.7178001,0.9356003,2.6152  c1.3027,1.5517998,0.9482002,2.6781998,0.5,4.1040001c-0.2353783,0.7481003-0.4785004,1.5209999-0.4785004,2.3775005  c0,0.4183998-0.0625,1.0991001-0.1288795,1.8197994c-0.3155174,3.4355011-0.4307175,5.9384995,0.9685822,6.8666992  c0.2422981,0.1611023,0.5791969,0.3022003,1.0137978,0.3022003c0.3633003,0,0.7959023-0.0990982,1.2987022-0.3680992  c1.6260986-0.8702011,2.1105003-1.7851982,2.6709976-2.8453007c0.6914024-1.3076,1.6387024-3.0985985,5.4326019-6.3734989  c6.7393188-5.8203011,11.8603973-16.778801,12.0947952-19.5112c9.4687042,2.5019002,18.0302048,7.2602,25.0634003,13.6709003  c-0.834877,1.4745998-1.9384003,2.8085995-2.8310013,2.6473999c-0.3280945-0.0594997-0.3407974-0.0620003-0.3818741-0.9384003  c-0.0586243-1.278801-0.1582184-3.4195004-3.685524-4.1123009c-5.0312958-0.9892998-12.176796,1.2900009-13.8476944,5.7109013  c-1.1523056,3.0478001-1.2657013,6.0297985-0.2949066,7.7821999c0.5029068,0.9067993,1.2754059,1.4868011,2.2344055,1.6786995  c0.4042969,0.0811005,0.8417969,0.2089996,1.304718,0.346199c-0.2842178,0.1679993-0.537117,0.4291992-0.7569199,0.7812996  c-2.0214005,3.2348022-4.4287033,5.7568016-5.152298,5.767601c-1.257782,0-2.2617035,1.1147003-2.6865005,2.982399  c-0.1689987,0.7427025-0.2734985,1.6206017-0.0537033,2.2607002c-0.011795,0.0116997-0.0224991,0.0239029-0.0341949,0.036602  c-0.7705002-0.3935013-1.9883041-0.8496017-2.9697037-0.4682007c-0.614296,0.2378006-1.0497971,0.7573013-1.2256012,1.4628983  c-0.4384995,1.7514-0.0370789,4.1484032,0.8955002,5.3432007c0.6044998,0.7749023,1.2881012,0.9375,1.7538986,0.9375  c0.267601,0,0.5351028,0.0298004,0.8086014,0.0586014c0.1006012,0.0102997,0.2041016,0.0214996,0.3115005,0.0312996  c-0.8241959,0.3125-1.4227982,0.7230988-1.7480011,1.2924995l-0.4306946,0.7635994  c-0.7744064,1.3833008-1.5752029,2.8134995-2.4453049,3.5093002l-0.182579,0.1455002  c-1.197319,0.9496994-3.0069199,2.3857994-3.7686157,5.6875C68.3759995,66.8974991,70.1532822,74.5,74.7294769,75.6186981  c2.9813995,0.7299042,6.6366043,0.4126053,9.3066025,0.1796036c0.9042969-0.0781021,1.6846008-0.1460037,2.2207031-0.1508026  c1.0673981-0.0009995,1.5956955,0.5483017,1.8740997,3.6274033c0.1464005,1.6083984,0.8172989,2.6132965,1.4091187,3.4994965  c0.5029984,0.7528992,0.9003754,1.3481979,0.9912796,2.2670975c0.0986023,0.9819031,0.0175018,1.6558075-0.0849991,2.5093002  c-0.1309052,1.0879059-0.2929993,2.4419022-0.1562805,4.8823013c0.0546799,0.9937057,0.0302811,2.0756989,0.0048752,3.2217026  c-0.0839996,3.7666016-0.1796951,8.0351028,2.9981232,9.3970032c0.47258,0.202095,0.875,0.4100952,1.2342834,0.5951996  c0.9160995,0.4716949,1.6562958,0.7694931,2.3828964,0.7694931c1.5830002-0.0004959,3.0996017-1.4130936,6.2148209-5.5175934  c5.5614777-7.3276062,6.7030792-10.8823013,7.6181793-14.767601c0.9422989-4.0009003,3.8202972-7.6030045,6.0956955-9.2563019  c2.2597046-1.642601,3.8720016-4.2201996,3.4502029-5.516098c-0.1679993-0.5166016-0.6230774-0.8506012-1.1592026-0.8506012  c-0.107399,0-0.3262939,0.0209961-0.6288757,0.0570984c-1.5928192,0.1875-6.4405212,0.7608032-7.8224182-2.2504959  c-0.1044006-0.2260056-0.2108002-0.4526062-0.3202057-0.6796036c0.9902039,1.3705978,2.0176239,2.2455978,3.1523056,2.0868988  c5.3671951-0.766098,8.447319-1.8711014,9.1543198-3.2846985c0.1591797-0.3179016,0.5263748-0.7583008,0.8808746-1.1846008  c0.1474991-0.1766968,0.2929993-0.3549957,0.4355011-0.5340958C123.5937805,97.471199,96.8427811,124,64,124  C31.7860813,124,5.4296813,98.4785004,4.0653811,66.5942001C4.8935814,66.7855988,5.8183813,66.7104034,6.776381,66.6308975z"/><path d="M27.9364815,86.5762024C31,88.2217026,33.6454811,89.6436005,34.375,94.4468002  c1.3573799,8.9614029,7.1259995,17.5551987,9.5438805,20.8334961C45.6864815,117.6787033,47.5741806,119,49.2323799,119  c0.7022018,0,1.339901-0.2465973,1.794899-0.6938019c0.4482994-0.4404984,0.6954002-1.0439987,0.6954002-1.6997986  c0-0.4833984,0.0459023-0.9887009,0.0937004-1.5243988c0.1142998-1.2700043,0.2440987-2.709404-0.1093788-4.6512985  c-0.4756203-2.6221008-0.4531212-3.8721008,0.0888786-4.7769012c0.0937004-0.1576996,0.3057022-0.2192001,0.7334023-0.3125  c0.4774971-0.1050034,1.1317978-0.2480011,1.497097-0.8715973c0.252903-0.432106,0.2812004-0.9516068,0.0859032-1.5893021  c-0.1162033-0.3824005-0.2617035-0.7426987-0.4042816-1.091301c-0.4639206-1.1381989-0.6963196-1.7099991,0.2070007-2.7627029  c1.7109985-1.9926987,4.4814796-6.5024948,4.9970779-9.8539963c0.1279221-0.8311005,0.5440025-1.7490997,0.9473-2.6371994  c0.672802-1.4844055,1.3691025-3.0201035,0.7480011-4.375c-0.3818016-0.8326035-1.1669998-1.4136047-2.4012985-1.7764053  c-2.6065025-0.766098-5.2775002-2.7065964-7.6338005-4.4189987c-1.1397018-0.8275986-2.2159004-1.6092987-3.1807022-2.1786957  c-2.7060966-1.5970993-7.0527-2.3549042-8.0732002-2.5161057c-0.7363777-0.4642944-1.4296989-0.9774933-2.1025963-1.4750977  c-1.5107002-1.1176987-2.705101-2.0004959-3.8935013-2.0004959c-0.5634995,0-1.3584003,0.2050934-1.9395008,1.1830978  c-1.1239986,1.8891983-2.3163986,3.7602997-4.5370998,5.8857956c-0.4911995,0.4707031-1.1903992,0.9267044-1.8671989,1.3677063  c-1.5264015,0.9960938-3.1054821,2.025795-3.2821999,3.7269974c-0.1172009,1.1308975,0.4307194,2.2861023,1.6767178,3.5317001  C24.7479992,84.8632965,26.3690815,85.733902,27.9364815,86.5762024z M26.0712814,77.9063034  c0.7528992-0.4913025,1.5311985-0.9986038,2.1571999-1.597702c2.4013996-2.297905,3.7235985-4.376503,4.8731003-6.3091049  c0.1219978-0.2050934,0.1815987-0.2050934,0.2206993-0.2050934c0.5293007,0,1.6844978,0.8544998,2.7040977,1.6083984  c0.7226219,0.5346985,1.5420036,1.1401978,2.4140015,1.6763c0.1161995,0.0718002,0.2461014,0.1190948,0.3819008,0.1381989  c0.0487976,0.0073013,4.8797989,0.7134018,7.5537186,2.2914963c0.8817825,0.5205002,1.9208794,1.2754059,3.0204811,2.0742035  c2.4883003,1.8076019,5.3075981,3.8560028,8.2450981,4.719696c0.4384995,0.1285019,0.9932022,0.3531036,1.1475029,0.690506  c0.2411995,0.5262985-0.2862015,1.6898956-0.7520027,2.716301c-0.4365005,0.9637985-0.9315987,2.0560989-1.1016006,3.158699  c-0.4364777,2.8373947-2.9159966,6.9657974-4.5379982,8.8554001c-1.6992989,1.9794998-1.0567017,3.5546951-0.5410995,4.8202972  c0.1083984,0.2661972,0.2206993,0.5396042,0.3144989,0.8282013c-0.0233994,0.0053024-0.0468788,0.0106964-0.0692978,0.0150986  c-0.5508003,0.1211014-1.4737015,0.3227997-2.0225029,1.2397995c-0.9354973,1.5643997-0.8330002,3.4432983-0.339798,6.1615982  c0.3045998,1.6753006,0.1932983,2.9150009,0.0848999,4.1142044c-0.0517006,0.5815964-0.1015015,1.1304016-0.1015015,1.703598  c0,0.0811005-0.0165977,0.1949005-0.0966797,0.2734985C49.5468788,116.9570007,49.4071808,117,49.2323799,117  c-0.7548981,0-2.1240005-0.7637024-3.7041016-2.9061966c-2.3290977-3.1592026-7.8856964-11.4268036-9.1766968-19.9468002  c-0.8789024-5.7925034-4.3799019-7.6734009-7.4688015-9.3330002c-1.5067806-0.8091049-2.9296989-1.5738068-4.0956993-2.7393036  c-0.5370808-0.5365982-1.1650009-1.3041992-1.1016006-1.9096985C23.7636814,79.4111023,24.9364815,78.6460037,26.0712814,77.9063034  z"/><path d="M53.0380783,15.6084003c-0.2607994-0.4673004-0.8407974-0.6484003-1.3212967-0.4087  c-0.1007004,0.0502996-2.472702,1.264699-2.472702,3.7734003c0,0.5019989-0.7254982,1.4081993-1.2557983,2.0704002  c-0.9307022,1.1629982-2.3389015,2.9208984-0.7842026,4.2152996c0.379921,0.3163986,0.9014015,0.4839001,1.5078011,0.4839001  c1.4785004,0,3.5732994-1.0171013,4.7158012-2.960001C54.27248,21.3481007,54.8895798,18.9384995,53.0380783,15.6084003z   M51.7040787,21.7686005c-0.8008003,1.3617992-2.232399,1.9741001-2.9921989,1.9741001  c-0.0703011,0-0.125-0.0059013-0.1650009-0.0122013c0.1268997-0.3428001,0.6660004-1.0160999,1.002903-1.4369984  c0.8329964-1.0406017,1.6942978-2.1167011,1.6942978-3.3204002c0-0.5517006,0.2598-0.9995003,0.5527992-1.3291016  C52.4120789,19.2031002,52.3837814,20.6138,51.7040787,21.7686005z"/><path d="M70.1767807,33.5634995c0.5791016,0,1.2098999-0.1689987,1.8768005-0.5019989  c3.9209976-1.9603996,3.4513016-8.1401005,3.4287949-8.4022999c-0.0243759-0.2915001-0.1747971-0.5580997-0.4130936-0.7290001  c-0.238205-0.1704006-0.5390015-0.2271004-0.823204-0.1582012c-0.8759995,0.216301-5.3046951,1.4096012-6.4160004,3.6289005  C67.1815796,28.6987,67.0263824,30.875,67.8895798,32.2705002C68.4042816,33.1040001,69.2167816,33.5634995,70.1767807,33.5634995z   M69.6190796,28.2959003c0.4092026-0.8183994,2.2324982-1.6763,3.8720016-2.2212009  c-0.0770035,1.6001015-0.4900818,4.2769012-2.3319016,5.1977997c-0.4805984,0.2402-0.7997971,0.2910004-0.982399,0.2910004  c-0.1944046,0-0.399498-0.0419998-0.5859985-0.3442993C69.1757813,30.5482998,69.189476,29.1548004,69.6190796,28.2959003z"/><text x="0" y="143" fill="#000000" font-size="5px" font-weight="bold" font-family="'Helvetica Neue', Helvetica, Arial-Unicode, Arial, Sans-serif">Created by priyanka</text><text x="0" y="148" fill="#000000" font-size="5px" font-weight="bold" font-family="'Helvetica Neue', Helvetica, Arial-Unicode, Arial, Sans-serif">from the Noun Project</text></svg>