<?xml version="1.0" encoding="utf-8"?>
<!-- Generator: Adobe Illustrator 22.1.0, SVG Export Plug-In . SVG Version: 6.00 Build 0)  -->
<svg version="1.1" id="Layer_1" xmlns="http://www.w3.org/2000/svg" xmlns:xlink="http://www.w3.org/1999/xlink" x="0px" y="0px"
	 viewBox="0 0 128 160" style="enable-background:new 0 0 128 160;" xml:space="preserve">
<style type="text/css">
	.st0{fill:#FEFEFA;}
</style>
<path class="st0" d="M64,128c35.3,0,64-28.7,64-64S99.3,0,64,0C28.7,0,0,28.7,0,64S28.7,128,64,128z M123.9,60.9
	c-0.1-0.1-0.2-0.1-0.4-0.2c-0.5-0.2-1.2-0.4-2-0.6c-1-0.3-2.9-0.8-3.8-1.3c1.2-0.2,3.7-0.1,6.1,0.2
	C123.8,59.7,123.9,60.3,123.9,60.9z M105.9,21.1c9.6,9.4,16.1,21.9,17.7,35.9c-7.9-0.9-8.2,0.7-8.3,1.4c-0.3,2,2.6,2.8,5.7,3.7
	c0.7,0.2,1.4,0.4,1.9,0.6c0,0,0.1,0,0.1,0c-0.2,0.3-0.6,0.9-0.9,1.3c-0.4,0.5-0.9,1-1.1,1.6c-0.3,0.5-2.9,1.5-7.6,2.2
	c-0.8-0.1-2.6-3.4-3.5-4.9c-1.6-2.9-2.5-4.5-3.8-4.3c-0.5,0.1-0.8,0.4-1,0.8c-0.5,1.1,0.3,2.8,2.1,6.3c0.6,1.2,1.2,2.4,1.8,3.6
	c1.8,3.9,6.8,3.7,9.2,3.5c-0.4,0.7-1.1,1.7-2.4,2.6c-2.7,1.9-5.8,5.9-6.9,10.4c-0.9,3.8-1.9,7-7.3,14c-4,5.3-4.4,5.1-6.1,4.2
	c-0.4-0.2-0.8-0.4-1.4-0.7c-1.9-0.8-1.9-4.2-1.8-7.5c0-1.1,0.1-2.3,0-3.4c-0.1-2.3,0-3.5,0.1-4.5c0.1-0.9,0.2-1.7,0.1-2.9
	c-0.1-1.4-0.8-2.4-1.3-3.2c-0.5-0.8-1-1.5-1.1-2.6c-0.2-1.9-0.5-5.4-3.8-5.4c0,0,0,0,0,0c-0.6,0-1.4,0.1-2.4,0.2
	c-2.5,0.2-6,0.5-8.7-0.1c-3.2-0.8-4.7-7.2-4.1-9.9c0.6-2.6,1.9-3.7,3.1-4.6l0.2-0.1c1.2-0.9,2.1-2.5,2.9-4.1l0.4-0.7
	c0.4-0.7,4.4-1.1,5.9-1.3c1.2-0.1,2.2-0.2,2.8-0.4c0.5-0.1,0.7,0,1.4,2.2c0.2,0.5,0.3,1,0.5,1.6c0.3,0.7,0.8,1.2,1.5,1.5
	c2.1,0.8,5.5-0.8,6-1c0,0,1.2-0.7,2.1-0.3c1.6,0.8,6.7,0.3,8.2,0.1c0.5-0.1,0.9-0.5,0.9-1V51c0-0.3-0.1-0.5-0.3-0.7
	c-0.2-0.2-0.5-0.3-0.7-0.3c0,0-2.6,0.1-4.5,0c-0.7,0-1.5-1.9-1.7-3.2c-0.1-0.4-0.4-0.7-0.8-0.8c-0.4-0.1-0.8,0.1-1,0.4
	c-0.4,0.6-0.9,1.2-1.3,1.6c-0.1-0.3-0.3-0.7-0.4-1c-0.7-2-1.2-3.3-2.1-3.6c-0.4-0.1-0.8-0.1-1.2,0.1c-1.5,0.9-0.9,2.3-0.5,3
	c0.2,0.5,0.4,1,0.5,1.6c0.1,0.4,0,0.7-0.2,1c-0.4,0.5-1.3,0.8-2.4,0.9c0-0.2,0.1-0.4,0.1-0.5c0.2-1,0.5-2.4-0.5-3.6
	c-0.4-0.5-1-0.8-1.8-0.8c-2.6-0.2-6.3,2.9-7.3,3.9c-1.4,1.2-2.3,1.1-3.4,1c-0.3,0-0.7-0.1-1-0.1c0,0,0,0,0,0
	c-0.4-0.1-1.1-2.1-0.7-3.8c0-0.1,0-0.1,0-0.1c0.2-0.1,1.1,0.2,1.8,0.7c0.4,0.2,0.9,0.2,1.2-0.1c1.5-1.3,1.4-1.9,1.4-2.2
	c0-0.2-0.1-0.4-0.3-0.6c0-0.5,0.2-1.7,0.6-2.3c0.1-0.1,0.2-0.2,0.2-0.2c2.5,0,6.1-5.5,6.8-6.7c0.2,0.1,0.4,0.4,0.6,0.5
	c0.8,0.8,1.9,1.8,3.4,1.8c3.1,0,5-4.6,5.3-6.9c0.1-1-0.1-1.8-0.6-2.3c-0.2-0.2-0.4-0.4-0.7-0.5c-0.3-2.7-0.9-4.3-1.6-4.8
	c-0.3-0.2-0.7-0.3-1.1-0.2c-1.5,0.4-2.4,2.9-2.7,7.6c0,0.7-0.2,1.1-0.4,1.3c-0.4,0.3-1.6-0.1-2.6-0.3c-0.5-0.2-1-0.3-1.6-0.4
	c-0.4-0.1-0.7-0.3-0.9-0.7c-0.7-1.2-0.5-3.7,0.4-6.1c1.2-3.1,7-5.4,11.6-4.5c2,0.4,2,1.1,2.1,2.2c0,0.9,0.1,2.5,2,2.8
	C103.2,24.6,104.8,22.8,105.9,21.1z M88.9,51.4c0.4,0.4,0.9,0.6,1.6,0.6c1.8-0.1,3.1-0.7,3.9-1.6c0.3-0.4,0.5-0.8,0.6-1.3
	c0.4,0.9,0.8,1.4,1.5,1.4c0.2,0,0.8,0,2-1.3c0.5,1.3,1.4,2.7,3,2.8c1.2,0.1,2.7,0.1,3.6,0v2.7c-2.7,0.3-5.6,0.3-6.2,0
	c-1.9-1-4,0.3-4,0.3c-0.9,0.5-3.2,1.3-4.3,0.9c-0.2-0.1-0.3-0.2-0.4-0.4c-0.2-0.5-0.4-1-0.5-1.5c-0.5-1.6-1.2-3.6-3-3.6
	c-0.2,0-0.5,0-0.7,0.1c-0.5,0.1-1.5,0.2-2.5,0.3c-0.8,0.1-1.5,0.2-2.2,0.2c0.3-0.2,0.7-0.5,1-0.8c2.3-2.1,4.8-3.4,5.9-3.4
	c0.2,0,0.3,0.1,0.4,0.2c0.3,0.4,0.2,1,0.1,1.9C88.5,49.9,88.4,50.8,88.9,51.4z M89.3,33.3c0.7,0.1,1.4-0.1,2-0.5
	c0.8-0.5,1.2-1.5,1.3-2.8c0.2-2.7,0.6-4.3,0.8-5.1c0.2,0.8,0.4,2.1,0.6,3.3c0.1,0.5,0.5,0.9,1,0.9c0,0,0.1,0,0.1,0.1
	c0.1,0.1,0.1,0.3,0.1,0.7c-0.2,1.8-1.7,5.1-3.3,5.1c-0.7,0-1.4-0.6-2-1.2C89.6,33.6,89.5,33.5,89.3,33.3z M60.2,4.1
	c0.4,0,0.8,0,1.2-0.1c-0.9,0.5-1.7,1-2.4,1.6C59.5,5.1,59.9,4.6,60.2,4.1z M65.6,4c4,0.1,8,0.6,11.8,1.5c0,0.1,0,0.2,0,0.4
	c0,1.4-4.7,12.3-11.4,18.1c-4.1,3.5-5.2,5.6-5.9,7c-0.5,1-0.8,1.4-1.8,2c-0.1,0.1-0.2,0.1-0.3,0.1c-0.5-0.7-0.2-3.8-0.1-5
	c0.1-0.8,0.1-1.5,0.1-2c0-0.5,0.2-1.1,0.4-1.8c0.5-1.6,1.1-3.6-0.9-6c-0.3-0.4-0.5-0.8-0.5-1c0.1-0.4,0.8-0.8,1.3-1.1
	c0.7-0.4,1.4-0.9,1.4-1.7c0-0.7-0.4-1.4-0.8-2.2c-0.4-0.8-0.9-1.8-1.1-2.7C57.9,8.6,61.4,6.2,65.6,4z M57.4,4.4
	c-0.6,0.7-1.3,1.4-1.9,2c-2,2.1-4.2,4.3-5,5.9c-0.5,1.1-0.8,1.2-0.8,1.2c-0.1,0-0.7-0.2-1.1-0.4c-0.8-0.4-2-0.9-3.7-1.3
	c-3.8-0.8-5.6-1.5-6.5-2C44.3,7,50.7,5.1,57.4,4.4z M4,64c0-19.7,9.5-37.1,24.2-48.1c0.7,0.1,1.3,0.2,1.8,0.5
	c0.2,0.2,0.3,0.4,0.4,0.7c0,0.4,0.1,0.7,0.1,1c0.1,2.1,0.3,3,2.6,3c1.3,0,3.9-0.8,6-1.8c0,0.3,0,0.5,0.1,0.8c0.1,0.3,0.5,0.8,1.3,1
	c0.6,0.1,1.3,0.1,1.9-0.1c-0.9,0.6-1.9,1.3-2.9,2c-3.7,2.4-7.1,4.7-6.9,7c0.2,2.4,0.7,3.1,1.3,3.9c0.1,0.1,0.2,0.3,0.3,0.4
	c0.3,0.4,0.7,0.6,1.1,0.6c0.8,0,1.1-0.7,1.6-1.4c0.6-1,1-1.6,1.4-1.4c1.9,0.6,3.1-1.6,4.1-3.3c0.3-0.6,0.8-1.4,1.1-1.8
	c0.6,0.6,1,1.8,1.4,2.8c0.6,1.5,1.1,2.9,2.4,2.6c0.2,0,0.4-0.1,0.7-0.3c0.6-0.2,1.4-0.6,1.8-0.3c0.4,0.2,0.7,1,0.8,2.1
	c0.2,1.7,0.7,3.3,1.1,4.7c0.3,1.2,0.8,2.7,0.6,3.1c-0.1,0.1-0.3,0.2-0.7,0.2c-1.1,0.1-1.4-0.5-2-1.9c-0.4-1-1.1-2.8-3.1-2.2
	c-0.7,0.2-1.2-0.1-1.7-0.4c-0.2-0.2-0.9-0.6-1.5-0.1c-0.6,0.5-0.4,1,0.1,2.5c0.2,0.6,0.5,1.1,0.6,1.6c0.2,0.6,0.5,1.2,0.6,1.5
	c-0.1,0-0.2,0.1-0.5,0.1c-0.5,0.1-1.2,0.1-2,0c-2-0.1-4.7-0.3-7.2,2.2c-1.7,1.7-3.2,5.1-4.6,8.1c-0.9,2-2.2,4.8-2.8,5.1
	c-0.5,0.2-1.5-0.6-2.4-1.3c-1-0.8-2-1.6-3.1-1.6c-0.1,0-6.3,0.1-8.1,2.9c-0.4,0.7-0.8,1.8-0.2,3.3c0.4,1,1,1.7,1.9,1.9
	c1.4,0.4,2.8-0.5,3.9-1.2c0.2-0.1,0.3-0.2,0.5-0.3c0,0.3-0.1,0.6-0.3,0.9c-0.3,0.7-0.8,1.7,0.1,3.2c0.7,1.2,1.6,1.7,2.2,2.1
	c0.2,0.1,0.4,0.2,0.5,0.3c-0.1,0.1-0.3,0.4-0.5,0.5c-0.5,0.4-1,0.9-0.9,1.7c0.1,0.5,0.4,0.9,1,1.2c0.7,0.3,1.7,0.5,2.7,0.6
	c-1.1,0.5-2.6,1-3.9,0.8c-0.9-0.2-1.6-0.6-2.1-1.4c-0.7-1.1-0.9-2-1.1-2.7c-0.5-2.1-1.1-3.1-5.5-4.4c-2.3-0.7-4.2-0.5-5.8-0.4
	c-1.4,0.1-2.2,0.2-2.6-0.2C4,64.3,4,64.1,4,64z M6.8,66.6c1.4-0.1,3.1-0.3,5,0.3c3.7,1.1,3.8,1.6,4.1,2.9c0.2,0.8,0.4,1.9,1.3,3.4
	c0.8,1.3,2,2.1,3.4,2.3c0.3,0.1,0.7,0.1,1,0.1c2.6,0,5.2-1.5,5.9-2.2c0.7-0.5,0.6-1.1,0.6-1.4c-0.3-0.9-1.3-1.1-2.8-1.3
	c-0.5-0.1-1.2-0.2-1.7-0.3c0.5-0.4,1-1,1-1.8c0-1.1-0.8-1.6-1.4-2c-0.5-0.3-1.1-0.7-1.6-1.5c-0.4-0.6-0.3-0.7,0-1.2
	c0.3-0.6,0.7-1.4,0.4-2.8c-0.2-0.7-0.6-1-0.9-1.1c-0.8-0.3-1.7,0.2-2.6,0.8c-0.7,0.4-1.7,1.1-2.2,1c-0.3-0.1-0.5-0.5-0.6-0.8
	c-0.3-0.8-0.1-1.2,0-1.4c1-1.4,4.7-2,6.5-2c0.4,0,1.2,0.7,1.8,1.2c1.2,1,2.7,2.3,4.3,1.6c1.3-0.5,2.2-2.4,3.9-6.2
	c1.3-2.8,2.7-6,4.2-7.5c1.9-1.9,3.8-1.7,5.6-1.6c0.9,0.1,1.7,0.1,2.5-0.1c0.7-0.1,1.5-0.4,1.9-1.2c0.5-0.9,0.1-1.8-0.5-3.2
	c-0.1-0.2-0.2-0.5-0.3-0.8c0.4,0.1,0.9,0,1.5-0.1c0.1,0,0.1,0,0.1,0c0.1,0.1,0.4,0.7,0.5,1c0.5,1.2,1.3,3.3,4,3.1
	c1-0.1,1.8-0.4,2.2-1.1c0.8-1.2,0.3-2.8-0.3-4.8c-0.4-1.3-0.8-2.8-1-4.3c-0.2-1.8-0.8-3-1.7-3.6c-1.3-0.8-2.8-0.2-3.6,0.2
	c0,0,0,0,0,0c-0.2-0.3-0.3-0.8-0.5-1.2c-0.5-1.4-1.1-3-2.2-3.8C44,25,43.5,24.9,43,25c-1.1,0.2-1.8,1.5-2.5,2.9
	c-0.4,0.7-1.3,2.3-1.7,2.4c-2-0.7-3.1,1.2-3.7,2.2c-0.3-0.4-0.5-0.9-0.7-2.5c-0.1-1.1,3.9-3.7,6-5.2c2.4-1.6,4.4-2.9,5.1-4.1
	c0.3-0.5,0.8-1.4,0.2-2.1c-0.6-0.7-1.4-0.4-2.4,0c-0.7,0.3-1.7,0.7-2.4,0.6c0.1-0.4,0.5-1,0.7-1.3c0.3-0.4,0.7-1.2,0.1-1.8
	c-0.7-0.6-1.4,0-1.7,0.2c-1.6,1.3-5.7,2.8-7.1,2.8c-0.2,0-0.4,0-0.5,0c0-0.2-0.1-0.7-0.1-1.2c0-0.3,0-0.6-0.1-1
	c-0.1-0.9-0.5-1.6-1.1-2.1c-0.3-0.2-0.5-0.4-0.8-0.5c2-1.3,4-2.5,6.1-3.6c0.8,0.7,2.7,1.8,8.1,3c1.5,0.3,2.5,0.8,3.3,1.1
	c0.7,0.3,1.4,0.6,2,0.6c0.9,0,1.7-0.6,2.6-2.3c0.5-1.1,2-2.7,3.5-4.3c-0.1,0.3-0.1,0.6-0.1,0.9c0.3,1.3,0.9,2.4,1.3,3.3
	c0.2,0.4,0.4,0.8,0.5,1.1c-0.1,0.1-0.3,0.2-0.4,0.3c-0.8,0.5-2,1.2-2.2,2.5c-0.1,0.8,0.2,1.7,0.9,2.6c1.3,1.6,0.9,2.7,0.5,4.1
	c-0.2,0.7-0.5,1.5-0.5,2.4c0,0.4-0.1,1.1-0.1,1.8c-0.3,3.4-0.4,5.9,1,6.9c0.2,0.2,0.6,0.3,1,0.3c0.4,0,0.8-0.1,1.3-0.4
	c1.6-0.9,2.1-1.8,2.7-2.8c0.7-1.3,1.6-3.1,5.4-6.4C74,19.7,79.1,8.7,79.3,6c9.5,2.5,18,7.3,25.1,13.7c-0.8,1.5-1.9,2.8-2.8,2.6
	c-0.3-0.1-0.3-0.1-0.4-0.9c-0.1-1.3-0.2-3.4-3.7-4.1c-5-1-12.2,1.3-13.8,5.7c-1.2,3-1.3,6-0.3,7.8c0.5,0.9,1.3,1.5,2.2,1.7
	c0.4,0.1,0.8,0.2,1.3,0.3c-0.3,0.2-0.5,0.4-0.8,0.8c-2,3.2-4.4,5.8-5.2,5.8c-1.3,0-2.3,1.1-2.7,3c-0.2,0.7-0.3,1.6-0.1,2.3
	c0,0,0,0,0,0c-0.8-0.4-2-0.8-3-0.5c-0.6,0.2-1,0.8-1.2,1.5c-0.4,1.8,0,4.1,0.9,5.3c0.6,0.8,1.3,0.9,1.8,0.9c0.3,0,0.5,0,0.8,0.1
	c0.1,0,0.2,0,0.3,0c-0.8,0.3-1.4,0.7-1.7,1.3L75.6,54c-0.8,1.4-1.6,2.8-2.4,3.5L73,57.7c-1.2,0.9-3,2.4-3.8,5.7
	c-0.8,3.5,1,11.1,5.5,12.3c3,0.7,6.6,0.4,9.3,0.2c0.9-0.1,1.7-0.1,2.2-0.2c1.1,0,1.6,0.5,1.9,3.6c0.1,1.6,0.8,2.6,1.4,3.5
	c0.5,0.8,0.9,1.3,1,2.3c0.1,1,0,1.7-0.1,2.5c-0.1,1.1-0.3,2.4-0.2,4.9c0.1,1,0,2.1,0,3.2c-0.1,3.8-0.2,8,3,9.4
	c0.5,0.2,0.9,0.4,1.2,0.6c0.9,0.5,1.7,0.8,2.4,0.8c1.6,0,3.1-1.4,6.2-5.5c5.6-7.3,6.7-10.9,7.6-14.8c0.9-4,3.8-7.6,6.1-9.3
	c2.3-1.6,3.9-4.2,3.5-5.5c-0.2-0.5-0.6-0.9-1.2-0.9c-0.1,0-0.3,0-0.6,0.1c-1.6,0.2-6.4,0.8-7.8-2.3c-0.1-0.2-0.2-0.5-0.3-0.7
	c1,1.4,2,2.2,3.2,2.1c5.4-0.8,8.4-1.9,9.2-3.3c0.2-0.3,0.5-0.8,0.9-1.2c0.1-0.2,0.3-0.4,0.4-0.5C123.6,97.5,96.8,124,64,124
	C31.8,124,5.4,98.5,4.1,66.6C4.9,66.8,5.8,66.7,6.8,66.6z"/>
<path class="st0" d="M27.9,86.6c3.1,1.6,5.7,3.1,6.4,7.9c1.4,9,7.1,17.6,9.5,20.8c1.8,2.4,3.7,3.7,5.3,3.7c0.7,0,1.3-0.2,1.8-0.7
	c0.4-0.4,0.7-1,0.7-1.7c0-0.5,0-1,0.1-1.5c0.1-1.3,0.2-2.7-0.1-4.7c-0.5-2.6-0.5-3.9,0.1-4.8c0.1-0.2,0.3-0.2,0.7-0.3
	c0.5-0.1,1.1-0.2,1.5-0.9c0.3-0.4,0.3-1,0.1-1.6c-0.1-0.4-0.3-0.7-0.4-1.1c-0.5-1.1-0.7-1.7,0.2-2.8c1.7-2,4.5-6.5,5-9.9
	c0.1-0.8,0.5-1.7,0.9-2.6c0.7-1.5,1.4-3,0.7-4.4c-0.4-0.8-1.2-1.4-2.4-1.8c-2.6-0.8-5.3-2.7-7.6-4.4c-1.1-0.8-2.2-1.6-3.2-2.2
	c-2.7-1.6-7.1-2.4-8.1-2.5c-0.7-0.5-1.4-1-2.1-1.5c-1.5-1.1-2.7-2-3.9-2c-0.6,0-1.4,0.2-1.9,1.2c-1.1,1.9-2.3,3.8-4.5,5.9
	c-0.5,0.5-1.2,0.9-1.9,1.4c-1.5,1-3.1,2-3.3,3.7c-0.1,1.1,0.4,2.3,1.7,3.5C24.7,84.9,26.4,85.7,27.9,86.6z M26.1,77.9
	c0.8-0.5,1.5-1,2.2-1.6c2.4-2.3,3.7-4.4,4.9-6.3c0.1-0.2,0.2-0.2,0.2-0.2c0.5,0,1.7,0.9,2.7,1.6c0.7,0.5,1.5,1.1,2.4,1.7
	c0.1,0.1,0.2,0.1,0.4,0.1c0,0,4.9,0.7,7.6,2.3c0.9,0.5,1.9,1.3,3,2.1c2.5,1.8,5.3,3.9,8.2,4.7c0.4,0.1,1,0.4,1.1,0.7
	c0.2,0.5-0.3,1.7-0.8,2.7c-0.4,1-0.9,2.1-1.1,3.2c-0.4,2.8-2.9,7-4.5,8.9c-1.7,2-1.1,3.6-0.5,4.8c0.1,0.3,0.2,0.5,0.3,0.8
	c0,0,0,0-0.1,0c-0.6,0.1-1.5,0.3-2,1.2c-0.9,1.6-0.8,3.4-0.3,6.2c0.3,1.7,0.2,2.9,0.1,4.1c-0.1,0.6-0.1,1.1-0.1,1.7
	c0,0.1,0,0.2-0.1,0.3c-0.1,0.1-0.2,0.1-0.4,0.1c-0.8,0-2.1-0.8-3.7-2.9c-2.3-3.2-7.9-11.4-9.2-19.9c-0.9-5.8-4.4-7.7-7.5-9.3
	c-1.5-0.8-2.9-1.6-4.1-2.7c-0.5-0.5-1.2-1.3-1.1-1.9C23.8,79.4,24.9,78.6,26.1,77.9z"/>
<path class="st0" d="M53,15.6c-0.3-0.5-0.8-0.6-1.3-0.4c-0.1,0.1-2.5,1.3-2.5,3.8c0,0.5-0.7,1.4-1.3,2.1c-0.9,1.2-2.3,2.9-0.8,4.2
	c0.4,0.3,0.9,0.5,1.5,0.5c1.5,0,3.6-1,4.7-3C54.3,21.3,54.9,18.9,53,15.6z M51.7,21.8c-0.8,1.4-2.2,2-3,2c-0.1,0-0.1,0-0.2,0
	c0.1-0.3,0.7-1,1-1.4c0.8-1,1.7-2.1,1.7-3.3c0-0.6,0.3-1,0.6-1.3C52.4,19.2,52.4,20.6,51.7,21.8z"/>
<path class="st0" d="M70.2,33.6c0.6,0,1.2-0.2,1.9-0.5c3.9-2,3.5-8.1,3.4-8.4c0-0.3-0.2-0.6-0.4-0.7c-0.2-0.2-0.5-0.2-0.8-0.2
	c-0.9,0.2-5.3,1.4-6.4,3.6c-0.6,1.3-0.8,3.5,0.1,4.9C68.4,33.1,69.2,33.6,70.2,33.6z M69.6,28.3c0.4-0.8,2.2-1.7,3.9-2.2
	c-0.1,1.6-0.5,4.3-2.3,5.2c-0.5,0.2-0.8,0.3-1,0.3c-0.2,0-0.4,0-0.6-0.3C69.2,30.5,69.2,29.2,69.6,28.3z"/>
</svg>
