<?xml version="1.0" encoding="utf-8"?>
<!-- Generator: Adobe Illustrator 22.1.0, SVG Export Plug-In . SVG Version: 6.00 Build 0)  -->
<svg version="1.1" id="Layer_1" xmlns="http://www.w3.org/2000/svg" xmlns:xlink="http://www.w3.org/1999/xlink" x="0px" y="0px"
	 viewBox="0 0 96 65" style="enable-background:new 0 0 96 65;" xml:space="preserve">
<style type="text/css">
	.st0{fill:#FEFEFA;}
</style>
<path class="st0" d="M94.9,35.1c0.7,0,1.1,0.7,0.9,1.3l-3.3,11c-0.1,0.4-0.4,0.6-0.8,0.7l-7.3,1.5l-0.7,0.7
	c-0.2,0.2-0.5,0.3-0.7,0.3l-2.6-0.1L79,51.7c-0.7,0.5-1.6,0-1.6-0.8v-5l-0.9-0.4c-0.3-0.2-0.6-0.5-0.6-0.9V42l-0.8-0.2l0,1.9
	l0.3,4.8c0,0.4-0.1,0.7-0.5,0.9l-1.3,0.9c-0.6,0.4-1.5,0-1.5-0.8c-0.2-2.4-0.4-4.2-0.5-5.5c-0.1-0.6-0.2-1.1-0.3-1.4
	c0-0.1-0.1-0.2-0.1-0.3c-0.5-0.6-1.6-2.6-3.6-6.2c-0.1-0.2-0.1-0.3-0.1-0.5l0.2-3.2c0-0.3,0.2-0.6,0.5-0.8l1.2-0.7l-0.9-0.7
	l-0.7,0.3c-0.8,0.3-1.6-0.4-1.4-1.2l1-3.7c0.1-0.3,0.2-0.5,0.5-0.6l0.5-0.3l-0.5-0.2c-0.5-0.2-0.7-0.8-0.6-1.3l1.3-3.4
	c0.1-0.4,0.5-0.7,0.9-0.7l-0.3-2.1c0-0.2,0-0.4,0.1-0.5l1.9-4.7c0.1-0.2,0.2-0.4,0.4-0.5l2.8-1.6L74.9,7h-0.8v1.4
	c0,0.3-0.1,0.6-0.4,0.8l-4.4,3.7c-0.1,0.1-0.2,0.1-0.3,0.2l-1.6,0.7l-0.6,4.8l0.7,1.9c0.1,0.4,0,0.8-0.3,1.1L66,22.7l-1.3,4.8
	l0.5,6.1l2.3,3.8c0,0.1,0.1,0.2,0.1,0.3l1.6,5.9c0,0.1,0,0.2,0,0.3V47c0,0.8-0.9,1.3-1.5,0.9l-4-2.4l-3.3-2.7l-2,0.4
	c-0.3,0.1-0.6,0-0.8-0.2l-3.1-2.1c-0.1-0.1-0.2-0.2-0.3-0.3L52.7,38l-3.2,1.6c-0.5,0.3-1.2,0-1.4-0.6L47,35.9
	c-0.1-0.3-0.1-0.6,0.1-0.8l1.7-3.2l2-3l3.7-5.4L53,22.1l-0.9,0.8c-0.2,0.2-0.5,0.3-0.8,0.2l-2.9-0.5c-0.5-0.1-0.8-0.5-0.8-1v-1
	l-5.3-2c-0.5-0.2-0.8-0.8-0.6-1.4l1-2.1l-1.4-1.3L37.8,14c-0.5,0-0.9-0.3-1-0.8l-0.6-2.9l-1.8-2.6L29.3,5l-2.2,0.7
	c-0.1,0-0.2,0-0.3,0h-2.1l-0.9,2.1c-0.2,0.4-0.6,0.7-1,0.6L17.4,8c-0.3,0-0.5-0.2-0.7-0.4l-0.8-1.1L13,10.2
	c-0.3,0.3-0.7,0.5-1.1,0.3l-2-0.7l-8.2,6c-0.7,0.5-1.6,0-1.6-0.8v-14c0-0.6,0.4-1,1-1h78.1c0.5,0,1,0.4,1,0.9l2.3,33.6L94.9,35.1z
	 M73.1,40.6c0-0.6,0.6-1.1,1.2-1l2.8,0.5c0.5,0.1,0.8,0.5,0.8,1V44l0.9,0.4c0.3,0.2,0.6,0.5,0.6,0.9v3.5l0.2-0.2
	c0.2-0.1,0.4-0.2,0.6-0.2l2.5,0.1l0.6-0.6c0.1-0.1,0.3-0.2,0.5-0.3l7-1.4l2.7-9.2l-11.9-0.4c-0.5,0-0.9-0.4-1-0.9L78.3,2.1H2.1v11
	l7-5.2c0.3-0.2,0.6-0.2,0.9-0.1l1.8,0.6l3.2-4.2c0.4-0.5,1.2-0.5,1.6,0L18.1,6l4.2,0.4l0.9-2C23.2,4,23.6,3.7,24,3.7h2.6l2.5-0.8
	c0.3-0.1,0.5-0.1,0.8,0.1l5.6,3.1c0.1,0.1,0.3,0.2,0.3,0.3l2.1,3c0.1,0.1,0.1,0.2,0.2,0.4l0.5,2.2l3.1-0.1c0.3,0,0.5,0.1,0.7,0.3
	l2.3,2.1c0.3,0.3,0.4,0.8,0.2,1.1L44,17.2l4.9,1.8c0.4,0.1,0.7,0.5,0.7,0.9v0.8l1.6,0.3l1.3-1.1c0.4-0.4,1-0.3,1.4,0.1l2.5,2.7
	c0.3,0.3,0.3,0.9,0.1,1.2l-4.1,6l-1.9,2.8L49,35.7l0.6,1.6l3.1-1.5c0.5-0.2,1,0,1.3,0.4l1.8,3.2l2.6,1.8l2-0.4
	c0.3-0.1,0.6,0,0.8,0.2l3.6,2.9l2.4,1.5v-1.3l-1.5-5.7l-2.3-3.9c-0.1-0.1-0.1-0.3-0.1-0.4l-0.5-6.5c0-0.1,0-0.2,0-0.3l1.4-5.2
	c0-0.2,0.1-0.3,0.3-0.5l1.1-1l-0.5-1.6c-0.1-0.1-0.1-0.3,0-0.5l0.7-5.6c0-0.4,0.3-0.7,0.6-0.8l2-0.8l3.9-3.3V6c0-0.6,0.4-1,1-1h2.9
	c0.6,0,1.1,0.5,1,1.1l-0.5,4.2c0,0.3-0.2,0.6-0.5,0.7l-2.9,1.7l-1.7,4.2l0.5,2.9c0.1,0.6-0.4,1.2-1,1.2h-0.5l-0.7,1.9l1.5,0.6
	c0.8,0.3,0.8,1.4,0.1,1.8l-2,1.1L69,28c0.1,0,0.3,0.1,0.4,0.2l2.6,1.9c0.6,0.4,0.5,1.3-0.1,1.7L69.7,33l-0.2,2.4
	c1.8,3.4,2.9,5.4,3.2,5.6c0.1,0.1,0.3,0.4,0.4,0.7V40.6z"/>
</svg>
